<svg xmlns="http://www.w3.org/2000/svg" xmlns:xlink="http://www.w3.org/1999/xlink" width="43.7760009765625" height="61.272003173828125" viewBox="0 0 43.7760009765625 61.272003173828125" fill="none">
<g  style="mix-blend-mode:multiply">
<path     fill="#0274F5"  d="M43.776 55.152Q42.696 57.456 40.356 59.364Q38.016 61.272 35.352 61.272Q32.688 61.272 30.132 59.796Q27.576 58.32 25.992 56.808Q24.408 55.296 21.492 52.128Q18.576 48.96 17.496 47.88Q13.68 51.984 8.208 51.984Q4.608 51.984 2.304 50.184Q1.66893e-06 48.384 1.66893e-06 45.396Q1.66893e-06 42.408 2.484 40.284Q4.968 38.16 9.144 38.16Q11.52 38.16 13.896 38.952Q14.616 35.424 15.048 28.944Q10.656 28.152 7.884 25.236Q5.112 22.32 5.112 17.136Q5.112 15.12 5.76 12.024Q6.552 11.88 7.848 11.88Q9.144 11.88 10.512 12.888Q9.576 14.616 9.576 17.496Q9.576 23.328 15.264 24.696Q15.552 16.848 16.128 13.644Q16.704 10.44 18.144 7.524Q19.584 4.608 22.932 2.304Q26.28 0 31.464 0Q36.648 0 39.492 3.06Q42.336 6.12 42.336 10.296Q42.336 16.128 36.972 22.068Q31.608 28.008 23.688 29.304Q21.456 39.024 20.448 42.48Q21.6 43.344 24.66 45.72Q27.72 48.096 29.34 49.212Q30.96 50.328 33.732 51.444Q36.504 52.56 39.096 52.56L42.12 52.344Q43.344 54.072 43.776 55.152ZM37.512 10.944Q37.512 8.784 36.396 7.416Q35.28 6.048 33.408 6.048Q28.584 6.048 26.352 16.56Q25.128 22.32 24.624 24.912Q29.952 23.976 33.732 19.62Q37.512 15.264 37.512 10.944ZM7.56 46.584Q10.08 46.584 12.024 43.848Q9.936 42.552 7.848 42.552Q4.752 42.552 4.752 44.568Q4.752 45.576 5.616 46.08Q6.48 46.584 7.56 46.584Z">
</path>
<path     fill="#3AE088" opacity="0.2" d="M43.776 55.152Q42.696 57.456 40.356 59.364Q38.016 61.272 35.352 61.272Q32.688 61.272 30.132 59.796Q27.576 58.32 25.992 56.808Q24.408 55.296 21.492 52.128Q18.576 48.96 17.496 47.88Q13.68 51.984 8.208 51.984Q4.608 51.984 2.304 50.184Q1.66893e-06 48.384 1.66893e-06 45.396Q1.66893e-06 42.408 2.484 40.284Q4.968 38.16 9.144 38.16Q11.52 38.16 13.896 38.952Q14.616 35.424 15.048 28.944Q10.656 28.152 7.884 25.236Q5.112 22.32 5.112 17.136Q5.112 15.12 5.76 12.024Q6.552 11.88 7.848 11.88Q9.144 11.88 10.512 12.888Q9.576 14.616 9.576 17.496Q9.576 23.328 15.264 24.696Q15.552 16.848 16.128 13.644Q16.704 10.44 18.144 7.524Q19.584 4.608 22.932 2.304Q26.28 0 31.464 0Q36.648 0 39.492 3.06Q42.336 6.12 42.336 10.296Q42.336 16.128 36.972 22.068Q31.608 28.008 23.688 29.304Q21.456 39.024 20.448 42.48Q21.6 43.344 24.66 45.72Q27.72 48.096 29.34 49.212Q30.96 50.328 33.732 51.444Q36.504 52.56 39.096 52.56L42.12 52.344Q43.344 54.072 43.776 55.152ZM37.512 10.944Q37.512 8.784 36.396 7.416Q35.28 6.048 33.408 6.048Q28.584 6.048 26.352 16.56Q25.128 22.32 24.624 24.912Q29.952 23.976 33.732 19.62Q37.512 15.264 37.512 10.944ZM7.56 46.584Q10.08 46.584 12.024 43.848Q9.936 42.552 7.848 42.552Q4.752 42.552 4.752 44.568Q4.752 45.576 5.616 46.08Q6.48 46.584 7.56 46.584Z">
</path>
</g>
</svg>
